<svg id="Lager_1" data-name="Lager 1" xmlns="http://www.w3.org/2000/svg" viewBox="0 0 95.35 95.35"><defs><style>.cls-1{fill:#ce0f0f;}</style></defs><title>LogoMJMtextcolor</title><polygon class="cls-1" points="0 48.12 14.28 81.7 48.12 95.35 81.7 81.07 95.35 47.23 81.07 13.65 47.23 0 13.65 14.28 0 48.12"/><path d="M44.9,44.89,72,35.31v-.18c-1,.06-2.11.18-3.13.24s-1.81.12-2.83.12-1.87.06-2.65.06H44.9V31.88L77,31.82v5.9L51,46.58v.12L77,55.56v5.9l-32.05.06V57.85H63.7c.72,0,1.57,0,2.53.06s1.87.06,2.71.12c1,.06,2,.12,3.07.12V58L44.9,49.11Z" transform="translate(-0.33 -0.45)"/><path d="M51,48.51,23.93,58v.18C25,58.15,26,58,27.06,58s1.81-.12,2.83-.12,1.87-.06,2.65-.06H51v3.68H19v-5.9l25.85-8.8v-.12L19,37.78v-5.9H51v3.68H32.24c-.72,0-1.57,0-2.53-.06s-1.87-.06-2.71-.12c-1-.06-2-.12-3.07-.12v.18L51,44.29Z" transform="translate(-0.33 -0.45)"/><path d="M41.94,75a14,14,0,0,1-1.75-.12c-.48-.12-.9-.24-1.33-.36V71a8.69,8.69,0,0,0,1.45.3,14.77,14.77,0,0,0,1.63.12,5.94,5.94,0,0,0,1.45-.18,3,3,0,0,0,1.33-.78,3.43,3.43,0,0,0,1-1.51A7.13,7.13,0,0,0,46,66.52V34.35h3.8V66a11,11,0,0,1-.6,4,6.64,6.64,0,0,1-1.63,2.77,6.79,6.79,0,0,1-2.47,1.63A9.12,9.12,0,0,1,41.94,75Z" transform="translate(-0.33 -0.45)"/></svg>