<svg id="Lager_1" data-name="Lager 1" xmlns="http://www.w3.org/2000/svg" viewBox="0 0 95.35 95.35"><defs><style>.cls-1{fill:#ce0f0f;}</style></defs><title>LogoMJMtransparent</title><path class="cls-1" d="M49.84,57.79H51v.06H63.7c.72,0,1.57,0,2.53.06s1.87.06,2.71.12c1,.06,2,.12,3.07.12V58L49.84,50.73Z" transform="translate(-0.33 -0.45)"/><path class="cls-1" d="M49.84,35.56v7.59L72,35.31v-.18c-1,.06-2.11.18-3.13.24s-1.81.12-2.83.12-1.87.06-2.65.06H49.84Z" transform="translate(-0.33 -0.45)"/><path class="cls-1" d="M81.4,14.1,47.56.45,14,14.73.33,48.57,14.6,82.15,48.44,95.8,82,81.52,95.67,47.68ZM77,37.72,51,46.58v.12L77,55.56v5.9l-27.11.05V66a11,11,0,0,1-.6,4,6.64,6.64,0,0,1-1.63,2.77,6.79,6.79,0,0,1-2.47,1.63,9.12,9.12,0,0,1-3.19.6,14,14,0,0,1-1.75-.12c-.48-.12-.9-.24-1.33-.36V71a8.69,8.69,0,0,0,1.45.3,14.77,14.77,0,0,0,1.63.12,5.94,5.94,0,0,0,1.45-.18,3,3,0,0,0,1.33-.78,3.43,3.43,0,0,0,1-1.51A7.13,7.13,0,0,0,46,66.52v-5H44.9v-.06H19v-5.9l25.85-8.8v-.12L19,37.78v-5.9H44.9L77,31.82Z" transform="translate(-0.33 -0.45)"/><path class="cls-1" d="M46,50.27,23.93,58v.18C25,58.15,26,58,27.06,58s1.81-.12,2.83-.12,1.87-.06,2.65-.06H46Z" transform="translate(-0.33 -0.45)"/><path class="cls-1" d="M32.24,35.56c-.72,0-1.57,0-2.53-.06s-1.87-.06-2.71-.12c-1-.06-2-.12-3.07-.12v.18L46,42.66v-7.1H32.24Z" transform="translate(-0.33 -0.45)"/></svg>